<svg width="25" height="25" viewBox="0 0 25 25" fill="none" xmlns="http://www.w3.org/2000/svg">
<path d="M22.8332 12.0827C20.7291 7.19727 16.7707 4.16602 12.4999 4.16602C8.22905 4.16602 4.27072 7.19727 2.16655 12.0827C2.1092 12.2141 2.07959 12.356 2.07959 12.4993C2.07959 12.6427 2.1092 12.7846 2.16655 12.916C4.27072 17.8014 8.22905 20.8327 12.4999 20.8327C16.7707 20.8327 20.7291 17.8014 22.8332 12.916C22.8906 12.7846 22.9202 12.6427 22.9202 12.4993C22.9202 12.356 22.8906 12.2141 22.8332 12.0827ZM12.4999 18.7493C9.1978 18.7493 6.0728 16.3639 4.27072 12.4993C6.0728 8.63477 9.1978 6.24935 12.4999 6.24935C15.802 6.24935 18.927 8.63477 20.7291 12.4993C18.927 16.3639 15.802 18.7493 12.4999 18.7493ZM12.4999 8.33268C11.6758 8.33268 10.8702 8.57705 10.185 9.03489C9.49981 9.49273 8.96575 10.1435 8.65039 10.9048C8.33502 11.6662 8.25251 12.504 8.41328 13.3122C8.57405 14.1205 8.97089 14.8629 9.55361 15.4456C10.1363 16.0283 10.8788 16.4252 11.687 16.586C12.4953 16.7467 13.333 16.6642 14.0944 16.3488C14.8558 16.0335 15.5065 15.4994 15.9643 14.8142C16.4222 14.129 16.6666 13.3234 16.6666 12.4993C16.6666 11.3943 16.2276 10.3345 15.4462 9.55307C14.6648 8.77167 13.605 8.33268 12.4999 8.33268ZM12.4999 14.5827C12.0878 14.5827 11.6851 14.4605 11.3424 14.2316C10.9998 14.0027 10.7328 13.6773 10.5751 13.2966C10.4175 12.9159 10.3762 12.497 10.4566 12.0929C10.537 11.6888 10.7354 11.3176 11.0267 11.0262C11.3181 10.7349 11.6893 10.5364 12.0934 10.456C12.4976 10.3757 12.9165 10.4169 13.2971 10.5746C13.6778 10.7323 14.0032 10.9993 14.2321 11.3419C14.461 11.6845 14.5832 12.0873 14.5832 12.4993C14.5832 13.0519 14.3637 13.5818 13.973 13.9725C13.5823 14.3632 13.0524 14.5827 12.4999 14.5827Z" fill="currentColor"/>
</svg>
